<mxfile host="app.diagrams.net" modified="2023-04-20T15:13:50.324Z" agent="Mozilla/5.0 (X11; Linux x86_64) AppleWebKit/537.36 (KHTML, like Gecko) Chrome/111.0.0.0 Safari/537.36" etag="VsHvJawXEPvUW2Tz_ct1" version="21.2.1" type="github">
  <diagram name="Page-1" id="03018318-947c-dd8e-b7a3-06fadd420f32">
    <mxGraphModel dx="1434" dy="775" grid="0" gridSize="10" guides="1" tooltips="1" connect="1" arrows="1" fold="1" page="1" pageScale="1" pageWidth="1100" pageHeight="850" background="#ededed" math="0" shadow="0">
      <root>
        <mxCell id="0" />
        <mxCell id="1" parent="0" />
        <mxCell id="677b7b8949515195-1" value="" style="whiteSpace=wrap;html=1;rounded=0;shadow=0;labelBackgroundColor=none;strokeColor=#000000;strokeWidth=1;fillColor=none;fontFamily=Verdana;fontSize=12;fontColor=none;align=center;comic=1;noLabel=1;" parent="1" vertex="1">
          <mxGeometry x="20" y="20" width="1060" height="810" as="geometry" />
        </mxCell>
        <mxCell id="677b7b8949515195-4" value="Nombre: xxxxxxxx" style="text;html=1;points=[];align=left;verticalAlign=top;spacingTop=-4;fontSize=35;fontFamily=Verdana" parent="1" vertex="1">
          <mxGeometry x="40" y="50" width="270" height="50" as="geometry" />
        </mxCell>
        <mxCell id="677b7b8949515195-16" value="" style="verticalLabelPosition=bottom;shadow=0;dashed=0;align=center;html=1;verticalAlign=top;strokeWidth=1;shape=mxgraph.mockup.graphics.simpleIcon;strokeColor=#999999;rounded=0;labelBackgroundColor=none;fontFamily=Verdana;fontSize=14;fontColor=#000000;comic=1;" parent="1" vertex="1">
          <mxGeometry x="165" y="170" width="770" height="230" as="geometry" />
        </mxCell>
        <mxCell id="NaVw0asXfyouuendmqU3-1" value="&lt;font style=&quot;font-size: 58px;&quot;&gt;a&lt;/font&gt;" style="whiteSpace=wrap;html=1;rounded=0;shadow=0;labelBackgroundColor=#FFD966;strokeWidth=1;fontFamily=Verdana;fontSize=28;align=center;comic=1;fillColor=#FFD966;" parent="1" vertex="1">
          <mxGeometry x="140" y="520" width="110" height="163" as="geometry" />
        </mxCell>
        <mxCell id="NaVw0asXfyouuendmqU3-6" value="Aciertos: xx&amp;nbsp; &amp;nbsp;Fallos: xx" style="text;html=1;points=[];align=left;verticalAlign=top;spacingTop=-4;fontSize=35;fontFamily=Verdana" parent="1" vertex="1">
          <mxGeometry x="700" y="50" width="360" height="50" as="geometry" />
        </mxCell>
        <mxCell id="NaVw0asXfyouuendmqU3-7" value="&lt;font style=&quot;font-size: 58px;&quot;&gt;e&lt;/font&gt;" style="whiteSpace=wrap;html=1;rounded=0;shadow=0;labelBackgroundColor=none;strokeWidth=1;fontFamily=Verdana;fontSize=28;align=center;comic=1;fillColor=#66FFFF;" parent="1" vertex="1">
          <mxGeometry x="320" y="580" width="110" height="163" as="geometry" />
        </mxCell>
        <mxCell id="NaVw0asXfyouuendmqU3-8" value="&lt;font style=&quot;font-size: 58px;&quot;&gt;i&lt;/font&gt;" style="whiteSpace=wrap;html=1;rounded=0;shadow=0;labelBackgroundColor=none;strokeWidth=1;fontFamily=Verdana;fontSize=28;align=center;comic=1;fillColor=#FFFF66;" parent="1" vertex="1">
          <mxGeometry x="495" y="520" width="110" height="163" as="geometry" />
        </mxCell>
        <mxCell id="NaVw0asXfyouuendmqU3-9" value="&lt;font style=&quot;font-size: 58px;&quot;&gt;o&lt;/font&gt;" style="whiteSpace=wrap;html=1;rounded=0;shadow=0;labelBackgroundColor=none;strokeWidth=1;fontFamily=Verdana;fontSize=28;align=center;comic=1;fillColor=#99FF99;" parent="1" vertex="1">
          <mxGeometry x="660" y="580" width="110" height="163" as="geometry" />
        </mxCell>
        <mxCell id="NaVw0asXfyouuendmqU3-10" value="&lt;font style=&quot;font-size: 58px;&quot;&gt;u&lt;/font&gt;" style="whiteSpace=wrap;html=1;rounded=0;shadow=0;labelBackgroundColor=none;strokeWidth=1;fontFamily=Verdana;fontSize=28;align=center;comic=1;fillColor=#FFCCE6;" parent="1" vertex="1">
          <mxGeometry x="825" y="500" width="110" height="163" as="geometry" />
        </mxCell>
        <mxCell id="NaVw0asXfyouuendmqU3-12" value="&lt;font style=&quot;font-size: 26px;&quot;&gt;Terminar&lt;/font&gt;" style="whiteSpace=wrap;html=1;rounded=0;shadow=0;labelBackgroundColor=none;strokeWidth=1;fontFamily=Verdana;fontSize=26;align=center;comic=1;fillColor=#CCCCCC;" parent="1" vertex="1">
          <mxGeometry x="900" y="740" width="160" height="63" as="geometry" />
        </mxCell>
      </root>
    </mxGraphModel>
  </diagram>
</mxfile>
